<?xml version="1.0" encoding="utf-8"?>
<!-- Generator: Adobe Illustrator 27.8.1, SVG Export Plug-In . SVG Version: 6.00 Build 0)  -->
<svg version="1.1" id="Capa_1" xmlns="http://www.w3.org/2000/svg" xmlns:xlink="http://www.w3.org/1999/xlink" x="0px" y="0px"
	 viewBox="0 0 300 300" style="enable-background:new 0 0 300 300;" xml:space="preserve">
<style type="text/css">
	.st0{fill:#7A3DFF;}
</style>
<g>
	<path class="st0" d="M91.2,229.8c0,10.5-0.2,21.1,0.1,31.6c0.2,7-5.4,13.2-12.3,13.5c-8,0.3-13.8-4.5-14.3-12.4
		c-0.9-11.9-1.5-23.9-2.3-35.8c-0.9-13.9-1.9-27.7-2.8-41.5c-0.2-3.6-0.4-7.1-0.6-10.7c-0.1-1.8-0.6-2.9-2.5-3.6
		c-4-1.4-6.3-4.6-6.3-8.8c-0.1-17.9-0.2-35.9,0-53.8c0.2-10.8,8.6-21.6,18.7-25.2c1.6-0.6,1.8,0.3,2.2,1.4
		c3.6,10.3,7.3,20.7,10.9,31c3.1,8.8,6.2,17.6,9.3,26.4c0.4,1.2,0.8,2.5,2.5,2.5c1.5,0,1.9-1.2,2.4-2.4
		c5.4-15.4,10.9-30.9,16.3-46.3c1.2-3.6,2.6-7.1,3.7-10.7c0.7-2.1,1.7-2.2,3.4-1.4c9.9,4.6,15.8,12.3,17.5,23.2
		c0.3,1.9,0.4,3.8,0.4,5.8c0,15.9,0,31.8,0,47.7c0,6-2,9-7.6,11.3c-1,0.4-1.2,1-1.3,1.9c-0.7,11.2-1.4,22.4-2.2,33.7
		c-0.9,13.7-1.9,27.4-2.8,41.1c-0.3,4.8-0.6,9.5-0.9,14.3c-0.4,7.5-6.1,12.7-13.7,12.5c-7.4-0.1-12.9-5.6-12.9-13.1
		c-0.1-10.3,0-20.5,0-30.8c0-11.3,0-22.6,0-34c0-0.7,0-1.4,0-2.1c-0.1-1.3-0.8-2.2-2.1-2.3c-1.3-0.1-1.9,0.8-2.2,1.9
		c-0.2,1-0.2,2-0.2,3C91.1,208.3,91.2,219,91.2,229.8z"/>
	<path class="st0" d="M250.2,135.1c0,8.8,0,17.7,0,26.5c0,4.2-1.9,7.2-5.6,9.2c-1.5,0.9-2.3,0.6-2.9-1.2c-2.7-8-6-15.8-10.6-23.1
		c-1.1-1.7-2.2-2.4-4.3-2.4c-13.5,0.1-26.9,0.1-40.4,0c-2.1,0-3.3,0.8-4.4,2.5c-4.3,7-7.6,14.5-10.3,22.2c-1,2.8-1.4,2.9-3.9,1.4
		c-3.4-2.1-5-5.3-5-9.1c-0.1-16.9-0.3-33.9,0.1-50.8c0.3-16.8,13.4-29.1,30.1-29.1c9.1,0,18.2,0,27.3,0c15.1,0,27.1,10.2,29.5,25.1
		c0.5,2.8,0.2,5.5,0.2,8.3C250.2,121.4,250.2,128.2,250.2,135.1z M206.4,132.9c6.8,0,13.7-0.1,20.5,0c2.1,0,2.9-0.7,3-2.8
		c0.5-6.2,1.2-12.3,1.9-18.4c0.9-6.8-4.1-11-10.6-8.8c-4.1,1.4-8.1,2.7-12.1,4.3c-1.9,0.7-3.7,0.6-5.6-0.1c-4.1-1.6-8.3-3-12.5-4.4
		c-3.7-1.2-6.9,0.2-9,3.4c-1.2,1.9-1,4-0.8,6c0.6,6.2,1.4,12.3,1.9,18.4c0.2,2.1,1,2.4,2.8,2.4C192.9,132.8,199.6,132.9,206.4,132.9
		z"/>
	<path class="st0" d="M93.5,25.1c14.5,0,25.8,11.4,26,26.1C119.7,65.1,107.8,77,93.6,77c-14.5,0-26.2-11.6-26.2-25.9
		C67.4,36.7,79,25.1,93.5,25.1z"/>
	<path class="st0" d="M180.6,51c0-14.5,11.4-26,25.8-26c14.5,0,26.2,11.5,26.2,25.9c0,14.4-11.6,26-26.1,26
		C192.2,77,180.6,65.4,180.6,51z"/>
	<path class="st0" d="M204.4,240.3c0,7.1,0,14.2,0,21.4c0,6.5-4,11.5-10.1,12.9c-6.4,1.4-12.5-1.3-15.3-7c-1.6-3.1-1.3-6.5-1.6-9.8
		c-0.9-12.6-1.7-25.1-2.6-37.7c0-0.2,0-0.4,0-0.6c-0.2-3.6-0.2-3.6,3.5-3.6c7.8,0,15.7,0.1,23.5,0c2,0,2.6,0.6,2.6,2.6
		C204.3,225.7,204.4,233,204.4,240.3z"/>
	<path class="st0" d="M208.9,240.6c0-7.4,0.1-14.8,0-22.2c0-1.9,0.6-2.6,2.6-2.6c8.2,0.1,16.4,0.1,24.6,0c2,0,2.7,0.6,2.5,2.6
		c-1,14.6-2,29.2-3,43.9c-0.5,7-5.2,12.1-11.7,12.6c-7.1,0.6-12.9-3.2-14.6-9.8c-0.3-1.3-0.3-2.5-0.3-3.8
		C208.9,254.4,208.9,247.5,208.9,240.6z"/>
	<path class="st0" d="M108.2,88.2c0,1.7,0.1,3.4,0,5.1c-0.1,3.6-3.2,5.3-6.3,3.5c-2.3-1.4-4.6-2.8-6.8-4.3c-1.1-0.7-2-0.7-3.1,0
		c-2.2,1.5-4.4,2.9-6.7,4.2c-3.3,1.9-6.4,0.3-6.6-3.6c-0.2-3.3-0.2-6.7,0-10c0.2-4,3.4-5.5,6.8-3.4c2.1,1.3,4.2,2.5,6.1,3.9
		c1.3,0.9,2.4,0.9,3.7,0c1.8-1.2,3.7-2.4,5.6-3.6c1.6-1.1,3.2-1.8,5.2-0.8c1.9,1,2.2,2.8,2.2,4.7C108.2,85.4,108.2,86.8,108.2,88.2
		C108.2,88.2,108.2,88.2,108.2,88.2z"/>
</g>
</svg>
