<?xml version="1.0" encoding="utf-8"?>
<!-- Generator: Adobe Illustrator 27.0.0, SVG Export Plug-In . SVG Version: 6.00 Build 0)  -->
<svg version="1.1" id="Capa_1" xmlns="http://www.w3.org/2000/svg" xmlns:xlink="http://www.w3.org/1999/xlink" x="0px" y="0px"
	 viewBox="0 0 300 300" style="enable-background:new 0 0 300 300;" xml:space="preserve">
<style type="text/css">
	.st0{fill:#232323;}
</style>
<g>
	<path class="st0" d="M91.15,229.78c0,10.54-0.23,21.09,0.08,31.62c0.2,6.95-5.41,13.25-12.34,13.5
		c-7.96,0.29-13.76-4.54-14.33-12.37c-0.87-11.92-1.52-23.86-2.31-35.79c-0.92-13.85-1.91-27.69-2.85-41.53
		c-0.24-3.55-0.43-7.1-0.59-10.66c-0.08-1.79-0.6-2.89-2.54-3.58c-4-1.42-6.31-4.59-6.33-8.79c-0.12-17.95-0.23-35.9,0.04-53.85
		c0.17-10.79,8.57-21.59,18.67-25.22c1.61-0.58,1.82,0.32,2.19,1.38c3.63,10.35,7.27,20.69,10.9,31.04c3.09,8.8,6.18,17.6,9.27,26.4
		c0.43,1.23,0.85,2.51,2.51,2.47c1.51-0.04,1.95-1.2,2.37-2.38c5.43-15.45,10.86-30.9,16.3-46.35c1.25-3.56,2.62-7.08,3.73-10.69
		c0.65-2.11,1.67-2.23,3.45-1.4c9.94,4.63,15.79,12.32,17.45,23.15c0.29,1.89,0.35,3.83,0.35,5.75c0.03,15.88,0.02,31.77,0.01,47.65
		c0,5.99-2.01,9-7.59,11.27c-0.99,0.4-1.24,0.99-1.3,1.92c-0.72,11.22-1.44,22.44-2.2,33.66c-0.93,13.7-1.9,27.4-2.83,41.11
		c-0.33,4.76-0.64,9.52-0.92,14.28c-0.45,7.55-6.05,12.67-13.72,12.53c-7.38-0.14-12.88-5.65-12.93-13.15
		c-0.07-10.26-0.02-20.51-0.02-30.77c0-11.33,0-22.65,0-33.98c0-0.71,0-1.42-0.03-2.14c-0.05-1.34-0.8-2.17-2.09-2.28
		c-1.29-0.11-1.94,0.83-2.15,1.95c-0.19,0.97-0.23,1.98-0.23,2.97C91.14,208.27,91.15,219.03,91.15,229.78z"/>
	<path class="st0" d="M250.16,135.06c0,8.83,0.01,17.66,0,26.49c-0.01,4.16-1.94,7.17-5.55,9.17c-1.53,0.85-2.33,0.63-2.94-1.19
		c-2.71-8.04-6.04-15.82-10.56-23.05c-1.06-1.7-2.25-2.4-4.3-2.39c-13.46,0.08-26.92,0.09-40.37,0c-2.14-0.01-3.33,0.76-4.43,2.54
		c-4.32,7.01-7.56,14.5-10.27,22.24c-0.96,2.76-1.4,2.95-3.87,1.41c-3.39-2.11-4.98-5.28-4.99-9.14
		c-0.06-16.95-0.27-33.9,0.05-50.84c0.32-16.76,13.37-29.11,30.09-29.14c9.11-0.01,18.23-0.02,27.34,0
		c15.06,0.03,27.08,10.24,29.54,25.08c0.46,2.75,0.24,5.54,0.25,8.32C250.17,121.39,250.16,128.22,250.16,135.06z M206.38,132.88
		c6.83,0,13.66-0.07,20.49,0.04c2.09,0.03,2.86-0.68,3.04-2.76c0.53-6.16,1.16-12.32,1.92-18.45c0.85-6.81-4.07-11.03-10.55-8.85
		c-4.05,1.36-8.09,2.73-12.08,4.26c-1.94,0.74-3.67,0.64-5.56-0.07c-4.13-1.55-8.28-3.04-12.47-4.42c-3.67-1.21-6.94,0.15-9,3.41
		c-1.21,1.91-1,3.97-0.8,6.01c0.62,6.15,1.43,12.29,1.93,18.45c0.17,2.06,1,2.43,2.8,2.41
		C192.86,132.84,199.62,132.88,206.38,132.88z"/>
	<path class="st0" d="M93.52,25.06c14.49-0.01,25.85,11.38,26,26.09C119.67,65.1,107.78,76.98,93.64,77
		c-14.49,0.02-26.18-11.55-26.21-25.93C67.4,36.67,79.03,25.08,93.52,25.06z"/>
	<path class="st0" d="M180.64,51.03c0-14.53,11.35-25.97,25.79-25.97c14.54,0,26.16,11.51,26.16,25.9
		c0,14.44-11.61,26.04-26.08,26.04C192.2,77.01,180.65,65.42,180.64,51.03z"/>
	<path class="st0" d="M204.36,240.34c0,7.12,0.03,14.24-0.01,21.36c-0.04,6.47-4.01,11.46-10.11,12.85
		c-6.35,1.44-12.47-1.34-15.3-6.96c-1.56-3.11-1.33-6.53-1.58-9.84c-0.93-12.56-1.72-25.13-2.56-37.69
		c-0.01-0.21-0.03-0.43-0.04-0.64c-0.2-3.64-0.2-3.65,3.53-3.65c7.83,0,15.67,0.05,23.5-0.03c1.97-0.02,2.61,0.65,2.59,2.59
		C204.31,225.67,204.36,233.01,204.36,240.34z"/>
	<path class="st0" d="M208.87,240.57c0-7.41,0.05-14.82-0.03-22.22c-0.02-1.94,0.61-2.62,2.58-2.6c8.19,0.08,16.38,0.08,24.57,0
		c1.96-0.02,2.66,0.62,2.52,2.6c-1.03,14.62-1.98,29.25-2.99,43.87c-0.48,6.95-5.23,12.06-11.69,12.65
		c-7.14,0.65-12.94-3.22-14.62-9.75c-0.33-1.26-0.33-2.54-0.33-3.82C208.86,254.39,208.87,247.48,208.87,240.57z"/>
	<path class="st0" d="M108.2,88.23c0,1.71,0.05,3.42-0.01,5.13c-0.13,3.58-3.2,5.32-6.31,3.52c-2.34-1.36-4.6-2.85-6.85-4.35
		c-1.1-0.74-1.99-0.73-3.1,0.02c-2.18,1.48-4.4,2.9-6.68,4.22c-3.33,1.93-6.42,0.29-6.61-3.56c-0.16-3.34-0.17-6.7,0.01-10.04
		c0.2-3.96,3.38-5.5,6.82-3.42c2.07,1.26,4.16,2.49,6.13,3.89c1.31,0.93,2.42,0.86,3.68,0.01c1.83-1.23,3.72-2.38,5.56-3.58
		c1.61-1.05,3.23-1.83,5.18-0.82c1.95,1.02,2.25,2.77,2.19,4.72C108.18,85.38,108.21,86.81,108.2,88.23
		C108.21,88.23,108.21,88.23,108.2,88.23z"/>
</g>
</svg>
